<svg height="512pt" viewBox="0 -20 512.00033 512" width="512pt" xmlns="http://www.w3.org/2000/svg"><path d="m286.851562 39.867188 61.359376 16.441406-25.023438 93.382812-61.355469-16.4375zm0 0" fill="#c6c5ca"/><path d="m305.996094 9.175781 40.980468 10.980469-8.953124 33.421875-40.984376-10.980469zm0 0" fill="#b77062"/><path d="m313.007812 146.972656-40.984374-10.980468-9.777344 36.492187c-22.019532 82.191406-70.730469 154.730469-138.46875 206.222656l46.148437 79.9375 5.300781-7.917969c62.261719-93.015624 108.808594-195.636718 137.78125-303.753906zm0 0" fill="#b77062"/><path d="m499.277344 155.777344c-10.816406 40.367187-36.980469 72.53125-70.519532 91.898437l-21.730468-37.652343c18.789062-10.839844 34.320312-27.316407 43.855468-47.84375l-122.253906-32.757813 14.066406-52.492187 3.148438.839843c49.375 13.230469 102.058594-.800781 138.3125-36.839843 19.363281 33.542968 25.9375 74.480468 15.121094 114.847656zm0 0" fill="#c6c5ca"/><path d="m250.171875 133.261719-61.359375 16.4375-25.019531-93.382813 61.355469-16.441406zm0 0" fill="#c6c5ca"/><path d="m214.957031 42.601562-40.980469 10.980469-8.953124-33.417969 40.980468-10.980468zm0 0" fill="#b77062"/><path d="m12.722656 155.777344c10.816406 40.367187 36.980469 72.53125 70.523438 91.898437l21.726562-37.652343c-18.789062-10.839844-34.320312-27.316407-43.851562-47.84375l122.25-32.757813-14.066406-52.492187-3.148438.839843c-49.375 13.230469-102.058594-.800781-138.3125-36.839843-19.363281 33.542968-25.9375 74.480468-15.121094 114.847656zm0 0" fill="#c6c5ca"/><path d="m232.382812 249.554688c9.3125-17.996094 17.21875-36.765626 23.617188-56.15625-2.273438-6.898438-4.359375-13.871094-6.246094-20.914063l-9.777344-36.492187-40.980468 10.980468c9.324218 34.8125 20.476562 69.050782 33.386718 102.582032zm0 0" fill="#b77062"/><path d="m388.222656 378.707031c-45.605468-34.667969-82.585937-78.878906-108.605468-129.152343-7.3125 18.996093-15.1875 37.761718-23.617188 56.277343 22.914062 50.324219 49.914062 98.789063 80.773438 144.894531l5.300781 7.917969zm0 0" fill="#b77062"/><path d="m291.832031 133.261719 23.011719-85.890625-27.984375-7.496094-25.023437 93.386719 61.359374 16.441406 2.007813-7.5zm0 0" fill="#898890"/><path d="m327.042969 42.605469 6.945312-25.921875-27.984375-7.5-8.957031 33.421875 40.980469 10.980469 2.011718-7.5zm0 0" fill="#895247"/><path d="m153.773438 378.707031c67.738281-51.492187 116.445312-124.03125 138.46875-206.222656l7.769531-28.992187-27.984375-7.5-9.78125 36.492187c-22.019532 82.191406-70.730469 154.730469-138.46875 206.222656l46.152344 79.9375 5.296874-7.917969c3.621094-5.40625 7.1875-10.851562 10.703126-16.324218zm0 0" fill="#895247"/><path d="m437.023438 210.023438c18.789062-10.839844 34.320312-27.316407 43.855468-47.84375l-122.253906-32.757813 12.65625-47.234375c-8.507812-.699219-17.023438-2.160156-25.4375-4.414062l-3.148438-.84375-14.066406 52.492187 122.253906 32.757813c-9.535156 20.527343-25.066406 37.003906-43.855468 47.847656l21.730468 37.648437c7.527344-4.347656 14.683594-9.339843 21.378907-14.925781zm0 0" fill="#898890"/><path d="m193.777344 56.316406 33.375-8.945312-2.011719-7.496094-61.359375 16.441406 25.023438 93.386719 27.988281-7.5zm0 0" fill="#898890"/><path d="m195.011719 20.164062 12.996093-3.480468-2.007812-7.5-40.984375 10.980468 8.957031 33.421876 27.984375-7.5zm0 0" fill="#895247"/><path d="m42.71875 155.777344c-9-33.589844-5.957031-67.574219 6.472656-97.363282-7.582031-5.074218-14.734375-10.914062-21.34375-17.484374-19.367187 33.542968-25.941406 74.480468-15.125 114.847656 10.816406 40.367187 36.980469 72.53125 70.523438 91.898437l8.613281-14.925781c-23.132813-19.292969-40.75-45.667969-49.140625-76.972656zm0 0" fill="#898890"/><path d="m228.992188 146.972656 12.992187-3.480468-2.007813-7.5-40.984374 10.980468c9.328124 34.8125 20.480468 69.050782 33.386718 102.582032 6.175782-11.929688 11.734375-24.203126 16.644532-36.773438-7.40625-21.679688-14.089844-43.628906-20.03125-65.808594zm0 0" fill="#895247"/><path d="m285.996094 305.832031c3.878906-8.515625 7.636718-17.082031 11.277344-25.699219-6.34375-9.90625-12.238282-20.109374-17.652344-30.578124-7.3125 18.996093-15.191406 37.761718-23.621094 56.277343 22.914062 50.324219 49.914062 98.792969 80.777344 144.898438l5.296875 7.914062 13.996093-24.242187c-26.4375-41.179688-49.847656-84.152344-70.074218-128.570313zm0 0" fill="#895247"/><path d="m490.648438 37.179688-4.871094-8.4375-6.910156 6.871093c-33.226563 33.03125-81.53125 46.605469-126.972657 35.949219l5.507813-20.550781-75.847656-20.324219-28.902344 107.875 75.847656 20.324219 5.433594-20.28125 105.996094 28.402343c-8.753907 15.136719-21.285157 27.65625-36.652344 36.519532l-6.496094 3.75 29.230469 50.644531 6.492187-3.75c36.75-21.21875 63.035156-55.472656 74.015625-96.453125 10.980469-40.984375 5.34375-83.792969-15.871093-120.539062zm-219.628907 90.78125 21.140625-78.902344 46.875 12.558594-21.144531 78.902343zm221.015625 25.875c-9.296875 34.691406-30.699218 64.054687-60.628906 83.429687l-14.257812-24.699219c17.648437-11.746094 31.578124-27.945312 40.535156-47.230468l3.757812-8.09375-123.628906-33.125 10.199219-38.0625c47.347656 11.257812 97.550781-1.207032 134.125-33.011719 15.476562 31.3125 19.019531 66.75 9.898437 100.792969zm0 0"/><path d="m108.722656 203.53125c-15.363281-8.867188-27.898437-21.386719-36.648437-36.523438l105.996093-28.402343 5.433594 20.28125 58.871094-15.773438-3.882812-14.484375-44.382813 11.890625-21.140625-78.902343 46.871094-12.558594 18.566406 69.289062 14.484375-3.882812-22.445313-83.777344-75.847656 20.324219 5.507813 20.550781c-45.445313 10.65625-93.742188-2.917969-126.96875-35.949219l-6.910157-6.871093-4.875 8.4375c-21.214843 36.746093-26.851562 79.554687-15.871093 120.539062 10.980469 40.980469 37.265625 75.234375 74.015625 96.449219l6.492187 3.75 29.230469-50.640625zm-28.128906 33.734375c-29.929688-19.375-51.332031-48.742187-60.628906-83.429687-9.117188-34.042969-5.578125-69.480469 9.902344-100.792969 27.695312 24.085937 63.199218 37.082031 99.371093 37.082031 11.589844 0 23.257813-1.335938 34.75-4.070312l10.199219 38.0625-123.628906 33.128906 3.757812 8.089844c8.957032 19.285156 22.886719 35.488281 40.535156 47.230468zm0 0"/><path d="m298.671875 268.203125-12.824219 7.773437c24.457032 40.351563 55.59375 75.53125 92.605469 104.65625l-36.847656 63.820313c-25.128907-37.742187-47.917969-77.535156-67.753907-118.304687l-13.484374 6.5625c32.945312 67.710937 63.496093 112.210937 82.175781 140.113281l55.476562-96.089844-5.257812-3.996094c-37.8125-28.742187-69.46875-63.914062-94.089844-104.535156zm0 0"/><path d="m311.304688 18.367188 26.496093 7.101562-1.839843 6.859375 14.488281 3.882813 5.71875-21.347657-55.46875-14.863281-5.71875 21.347656 14.484375 3.882813zm0 0"/><path d="m300.4375 164.15625c-28.808594 99.664062-72.554688 193.957031-130.042969 280.296875l-36.847656-63.824219c32.152344-25.300781 59.996094-55.332031 82.835937-89.34375 24.066407-35.839844 41.933594-75.160156 53.105469-116.859375l4.605469-17.175781-14.488281-3.882812-4.601563 17.175781c-21.480468 80.164062-69.695312 151.972656-135.765625 202.195312l-5.257812 3.996094 55.476562 96.089844 12-17.925781c59.039063-88.199219 103.914063-184.617188 133.386719-286.578126zm0 0"/><path d="m215.679688 225.988281 14.140624-5.007812c-6.605468-18.65625-12.75-37.777344-18.257812-56.824219l-14.40625 4.164062c5.585938 19.332032 11.820312 38.734376 18.523438 57.667969zm0 0"/><path d="m176.039062 32.328125-1.835937-6.859375 26.492187-7.101562 1.839844 6.863281 14.484375-3.882813-5.71875-21.347656-55.46875 14.863281 5.722657 21.347657zm0 0"/><g fill="#fff"><path d="m483.261719 151.484375-14.488281-3.882813c1.914062-7.140624 3.222656-14.402343 3.886718-21.585937l14.933594 1.382813c-.742188 8.027343-2.199219 16.132812-4.332031 24.085937zm4.902343-34.652344-14.996093-.210937c.007812-.582032.011719-1.164063.011719-1.742188 0-4.15625-.226563-8.296875-.667969-12.304687l14.910156-1.640625c.5 4.550781.753906 9.242187.753906 13.941406 0 .652344-.003906 1.304688-.011719 1.957031zm-17.082031-23.457031c-.941406-4.640625-2.207031-9.121094-3.753906-13.316406l14.070313-5.191406c1.8125 4.910156 3.285156 10.132812 4.382812 15.519531zm0 0"/><path d="m296.992188 125.890625 16.621093-62.039063 14.484375 3.882813-16.621094 62.039063zm0 0"/><path d="m177.542969 416.875-12.699219-7.976562c15.851562-25.242188 30.722656-51.484376 44.191406-77.996094l13.371094 6.796875c-13.675781 26.914062-28.769531 53.550781-44.863281 79.175781zm49.382812-88.183594-13.4375-6.65625c2.203125-4.445312 4.390625-8.945312 6.507813-13.386718l13.539062 6.457031c-2.152344 4.507812-4.371094 9.078125-6.609375 13.585937zm10.898438-22.699218-13.601563-6.320313c2.070313-4.457031 4.148438-9.015625 6.167969-13.546875l13.695313 6.113281c-2.050782 4.601563-4.160157 9.226563-6.261719 13.753907zm0 0"/><path d="m132.328125 115.128906-.28125-14.992187c6.070313-.117188 12.203125-.582031 18.226563-1.382813l1.984374 14.863282c-6.585937.878906-13.289062 1.386718-19.929687 1.511718zm-10.433594-.109375c-5.207031-.207031-10.453125-.644531-15.597656-1.304687l1.910156-14.875c4.707031.601562 9.511719 1.003906 14.28125 1.195312zm-25.910156-2.941406c-5.117187-.964844-10.246094-2.175781-15.246094-3.59375l4.09375-14.429687c4.570313 1.296874 9.261719 2.402343 13.9375 3.289062zm0 0"/><path d="m198.933594 63.695312 14.488281-3.882812 16.621094 62.039062-14.484375 3.882813zm0 0"/><path d="m351.011719 390.464844c-16.007813-13.621094-31.136719-28.628906-44.96875-44.617188l11.339843-9.8125c13.335938 15.410156 27.917969 29.878906 43.347657 43.003906zm-51.535157-52.394532c-3.222656-3.910156-6.414062-7.933593-9.492187-11.960937l11.914063-9.109375c2.96875 3.886719 6.046874 7.765625 9.152343 11.535156zm-15.578124-20.125c-2.984376-4.101562-5.925782-8.3125-8.75-12.511718l12.445312-8.371094c2.722656 4.050781 5.5625 8.109375 8.4375 12.066406zm0 0"/></g></svg>