<svg height="512pt" viewBox="-22 0 512 512" width="512pt" xmlns="http://www.w3.org/2000/svg"><path d="m192.3125 249.070312v-56.507812h18.898438v-48.9375l-19.449219-20.257812h-19.449219v-96.476563h-42.742188v-19.390625h-42.738281v19.390625h-42.742187v27.3125h-36.589844v221.785156l39.277344 38.898438 125.535156.191406 38.898438-39.277344v-26.730469zm0 0" fill="#b77062"/><path d="m178.503906 314.886719h-101.726562l-39.277344-38.898438v-110.746093h113.40625c10.777344 10.777343 16.820312 16.820312 27.597656 27.597656zm0 0" fill="#895247"/><path d="m86.832031 7.5h30v19.390625h-30zm0 0" fill="#895247"/><path d="m44.089844 26.890625h30v27.3125h-30zm0 0" fill="#895247"/><path d="m76.777344 314.886719-39.277344-38.898438v-221.785156h-30v221.785156l39.277344 38.898438 125.535156.191406.046875-.046875zm0 0" fill="#895247"/><path d="m196.800781 473h-174.511719l28.710938-112.5h117.089844zm0 0" fill="#b77062"/><path d="m274.953125 249.070312v-56.507812h-18.894531v-48.9375l19.445312-20.257812h19.449219v-96.476563h42.742187v-19.390625h42.738282v19.390625h42.742187v27.3125h36.589844v221.785156l-39.277344 38.898438-125.535156.191406-38.894531-39.277344v-26.730469zm0 0" fill="#b77062"/><path d="m270.464844 473h174.511718l-28.710937-112.5h-117.089844zm0 0" fill="#b77062"/><g fill="#ffb655"><path d="m7.5 86.777344h36.589844v36.589844h-36.589844zm0 0"/><path d="m44.089844 68.265625h42.742187v42.738281h-42.742187zm0 0"/><path d="m129.570312 68.265625h42.742188v42.738281h-42.742188zm0 0"/><path d="m86.832031 55.488281h42.738281v42.742188h-42.738281zm0 0"/><path d="m192.3125 192.5625h28.421875v56.507812h-28.421875zm0 0"/></g><path d="m41 314.886719v45.613281h137.089844v-45.402344zm0 0" fill="#c6c5ca"/><path d="m148.503906 314.886719h-101.726562l-39.277344-38.898438v-110.746093h113.40625c10.777344 10.777343 16.820312 16.820312 27.597656 27.597656zm0 0" fill="#ffb655"/><path d="m22.289062 473h174.511719v31.5h-174.511719zm0 0" fill="#c6c5ca"/><path d="m459.765625 123.367188h-36.589844v-36.589844h36.589844zm0 0" fill="#ffb655"/><path d="m423.175781 111.003906h-42.742187v-42.738281h42.742187zm0 0" fill="#ffb655"/><path d="m337.695312 111.003906h-42.742187v-42.738281h42.742187zm0 0" fill="#ffb655"/><path d="m380.433594 98.230469h-42.738282v-42.742188h42.738282zm0 0" fill="#ffb655"/><path d="m274.953125 249.070312h-28.417969v-56.507812h28.417969zm0 0" fill="#ffb655"/><path d="m426.265625 314.886719v45.613281h-137.089844v-45.402344zm0 0" fill="#c6c5ca"/><path d="m318.761719 314.886719h101.726562l39.277344-38.898438v-110.746093h-113.40625c-10.777344 10.777343-16.820313 16.820312-27.597656 27.597656zm0 0" fill="#ffb655"/><path d="m444.976562 504.5h-174.511718v-31.5h174.511718zm0 0" fill="#c6c5ca"/><path d="m51 360.5-28.710938 112.5h30l28.710938-112.5zm0 0" fill="#895247"/><path d="m337.695312 7.5h30v19.390625h-30zm0 0" fill="#895247"/><path d="m286.058594 275.800781v-26.730469h18.894531v-56.507812h-18.894531v-48.9375l19.445312-20.257812h19.449219v-96.476563h-30v96.476563h-19.449219l-19.445312 20.257812v48.9375h18.894531v56.507812h-18.894531v26.730469l38.894531 39.277344 29.953125-.046875zm0 0" fill="#895247"/><path d="m299.175781 360.5-28.710937 112.5h30l28.710937-112.5zm0 0" fill="#895247"/><path d="m7.5 86.777344h20v36.589844h-20zm0 0" fill="#ff7956"/><path d="m44.089844 68.265625h30v42.738281h-30zm0 0" fill="#ff7956"/><path d="m129.570312 68.265625h30v42.738281h-30zm0 0" fill="#ff7956"/><path d="m86.832031 55.488281h30v42.742188h-30zm0 0" fill="#ff7956"/><path d="m192.3125 192.5625h15v56.507812h-15zm0 0" fill="#ff7956"/><path d="m41 314.886719v45.613281h30v-45.566406zm0 0" fill="#898890"/><path d="m37.5 165.242188h-30v110.746093l39.277344 38.898438h30l-39.277344-38.898438zm0 0" fill="#ff7956"/><path d="m22.289062 473h30v31.5h-30zm0 0" fill="#898890"/><path d="m423.175781 86.777344h20v36.589844h-20zm0 0" fill="#ff7956"/><path d="m380.433594 68.265625h30v42.738281h-30zm0 0" fill="#ff7956"/><path d="m294.953125 68.265625h30v42.738281h-30zm0 0" fill="#ff7956"/><path d="m337.695312 55.488281h30v42.742188h-30zm0 0" fill="#ff7956"/><path d="m246.53125 192.5625h15v56.507812h-15zm0 0" fill="#ff7956"/><path d="m289.175781 315.097656h30v45.402344h-30zm0 0" fill="#898890"/><path d="m376.359375 165.242188h-30c-10.777344 10.777343-16.820313 16.820312-27.597656 27.597656v122.046875h30v-122.046875c10.777343-10.777344 16.820312-16.820313 27.597656-27.597656zm0 0" fill="#ff7956"/><path d="m270.464844 473h30v31.5h-30zm0 0" fill="#898890"/><path d="m184.8125 256.570312h18.898438v16.144532l-34.523438 34.855468-119.320312-.179687-34.867188-34.53125v-141.992187h21.589844v13.320312h15v-25.679688h27.742187v25.679688h15v-38.457031h27.738281v38.457031h15v-25.679688h27.742188v93.402344h15v-81.042968h8.75l15.148438 15.773437v25.921875h15v-31.957031l-23.753907-24.738281h-15.144531v-96.476563h-42.742188v-19.390625h-57.738281v19.390625h-42.742187v27.3125h-36.589844v232.414063l33.5 33.175781v55.707031h152.089844v-55.671875l33.121094-33.445313v-22.3125h9.523437v-71.507812h-43.421875zm-169.8125-140.703124v-21.589844h21.589844v21.589844zm36.589844-40.101563h27.742187v27.738281h-27.742187zm42.742187 14.964844v-27.742188h27.738281v27.742188zm42.738281 12.773437v-27.738281h27.742188v27.738281zm27.742188-69.113281v26.375h-27.742188v-26.375zm-70.480469-19.390625h27.738281v32.988281h-27.738281zm-42.742187 19.390625h27.742187v26.375h-27.742187zm-36.589844 27.3125h21.589844v17.574219h-21.589844zm155.589844 291.296875h-122.089844v-30.601562l122.089844.1875zm29.222656-152.9375h13.421875v41.507812h-13.421875zm0 0"/><path d="m156.003906 294.886719v-105.152344l-31.992187-31.992187h-96.511719v15h90.300781l23.203125 23.203124v98.941407zm0 0"/><path d="m56.617188 330.191406h15v15h-15zm0 0"/><path d="m86.617188 330.191406h15v15h-15zm0 0"/><path d="m116.617188 330.191406h15v15h-15zm0 0"/><path d="m146.617188 330.191406h15v15h-15zm0 0"/><path d="m430.675781 46.703125v-27.3125h-42.742187v-19.390625h-57.738282v19.390625h-42.742187v96.476563h-15.144531l-23.753906 24.738281v31.957031h15v-25.921875l15.144531-15.773437h8.753906v81.042968h15v-93.402344h27.742187v25.679688h15v-38.457031h27.738282v38.457031h15v-25.679688h27.742187v25.679688h15v-13.320312h21.589844v141.996093l-34.867187 34.527344-119.324219.183594-34.519531-34.859375v-16.144532h18.898437v-71.507812h-43.421875v71.507812h9.523438v22.3125l33.121093 33.445313v55.671875h152.085938v-55.707031l33.503906-33.175781v-232.414063zm-176.644531 153.359375h13.421875v41.507812h-13.421875zm164.734375 152.9375h-122.089844v-30.414062l122.089844-.1875zm-3.089844-318.609375v26.375h-27.742187v-26.375zm-70.480469-19.390625h27.738282v32.988281h-27.738282zm-42.742187 19.390625h27.742187v26.375h-27.742187zm0 41.375h27.742187v27.738281h-27.742187zm42.742187 14.964844v-27.742188h27.738282v27.742188zm42.738282 12.773437v-27.738281h27.742187v27.738281zm42.742187 12.363282v-21.589844h21.589844v21.589844zm0-36.589844v-17.574219h21.589844v17.574219zm0 0"/><path d="m349.464844 172.742188h90.300781v-15h-96.511719l-31.992187 31.992187v105.152344h15v-98.941407zm0 0"/><path d="m395.648438 330.191406h15v15h-15zm0 0"/><path d="m365.648438 330.191406h15v15h-15zm0 0"/><path d="m335.648438 330.191406h15v15h-15zm0 0"/><path d="m305.648438 330.191406h15v15h-15zm0 0"/><path d="m165.929688 382.355469 23.371093 91.585937v23.058594h-159.511719v-16.5h147.011719v-15h-144.855469l21.21875-83.144531-14.535156-3.710938-23.839844 93.414063v39.941406h189.511719v-39.941406l-23.839843-93.414063zm0 0"/><path d="m414.101562 382.355469 23.375 91.585937v23.058594h-159.511718v-16.5h147.011718v-15h-144.859374l21.222656-83.144531-14.535156-3.710938-23.839844 93.414063v39.941406h189.511718v-39.941406l-23.839843-93.414063zm0 0"/><path d="m159.351562 457.6875-7.636718-29.929688 14.53125-3.707031 7.640625 29.925781zm-10.109374-39.621094-3.710938-14.53125 14.53125-3.710937 3.710938 14.535156zm-6.183594-24.222656-3.710938-14.535156 14.535156-3.707032 3.710938 14.535157zm0 0" fill="#fff"/><path d="m131.003906 289.886719h-15v-36.691407h15zm0-46.691407h-15v-15h15zm0-25h-15v-15h15zm0 0" fill="#fff"/><path d="m407.527344 457.6875-7.636719-29.929688 14.53125-3.707031 7.636719 29.925781zm-10.113282-39.621094-3.707031-14.53125 14.53125-3.710937 3.710938 14.535156zm-6.179687-24.222656-3.710937-14.535156 14.535156-3.707032 3.710937 14.535157zm0 0" fill="#fff"/><path d="m442.265625 265.5625h-15v-25.320312h15zm0-35.320312h-15v-15h15zm0-25h-15v-15h15zm0 0" fill="#fff"/></svg>