<svg height="512pt" viewBox="0 -66 512.0001 512" width="512pt" xmlns="http://www.w3.org/2000/svg"><path d="m226.78125 96.632812h58.441406v175.734376h-58.441406zm0 0" fill="#ffb655"/><path d="m82.957031 272.367188h346.085938v28.222656h-346.085938zm0 0" fill="#e0e0e2"/><path d="m82.957031 345.171875h346.085938v28.222656h-346.085938zm0 0" fill="#e0e0e2"/><path d="m94.351562 300.589844h323.296876v44.582031h-323.296876zm0 0" fill="#787680"/><path d="m285.222656 123.460938c69.8125 13.621093 122.507813 75.105468 122.507813 148.90625h-122.507813zm-58.441406 0c-69.816406 13.621093-122.511719 75.105468-122.511719 148.90625h122.511719zm0 0" fill="#c6c5ca"/><path d="m491.414062 10.242188-115.378906 66.613281c-8.972656 5.183593-13.40625 15.695312-10.863281 25.734375l7.496094 27.765625c1.519531 5.625-.332031 11.511719-4.539063 15.285156l-16.070312 9.28125c11.066406 9.0625 20.824218 19.65625 28.960937 31.460937l74.765625-43.164062c46.558594-26.882812 62.507813-86.417969 35.628906-132.976562zm0 0" fill="#fff5cc"/><path d="m159.941406 154.921875-16.070312-9.28125c-4.207032-3.773437-6.058594-9.660156-4.539063-15.285156l7.492188-27.761719c2.546875-10.042969-1.886719-20.554688-10.859375-25.734375l-115.378906-66.617187c-26.878907 46.558593-10.929688 106.09375 35.628906 132.972656l74.765625 43.167968c8.136719-11.804687 17.894531-22.398437 28.960937-31.460937zm0 0" fill="#fff5cc"/><path d="m226.78125 96.632812h29.996094v175.734376h-29.996094zm0 0" fill="#ff7956"/><path d="m82.957031 272.367188h30v28.222656h-30zm0 0" fill="#c6c5ca"/><path d="m82.957031 345.171875h30v28.222656h-30zm0 0" fill="#c6c5ca"/><path d="m94.351562 300.589844h29.996094v44.582031h-29.996094zm0 0" fill="#57565c"/><path d="m226.78125 132.640625v-9.179687c-69.816406 13.621093-122.511719 75.105468-122.511719 148.90625h29.996094c0-62.785157 38.140625-116.660157 92.515625-139.726563zm0 0" fill="#898890"/><path d="m285.222656 123.460938v148.90625h29.996094v-139.726563c-9.539062-4.050781-19.578125-7.148437-29.996094-9.179687zm0 0" fill="#898890"/><path d="m382.054688 154.921875 16.070312-9.28125c4.210938-3.773437 6.058594-9.660156 4.539062-15.285156l-7.492187-27.765625c-2.546875-10.039063 1.890625-20.550782 10.859375-25.734375l91.886719-53.046875c-1.789063-4.613282-3.953125-9.148438-6.503907-13.566406l-115.378906 66.613281c-8.96875 5.183593-13.40625 15.695312-10.859375 25.734375l7.492188 27.765625c1.519531 5.625-.328125 11.511719-4.539063 15.285156l-16.070312 9.28125c11.066406 9.0625 20.824218 19.65625 28.960937 31.460937l20.804688-12.011718c-5.984375-7.070313-12.601563-13.582032-19.769531-19.449219zm0 0" fill="#ffc477"/><path d="m86.210938 143.214844c-42.140626-24.328125-59.207032-75.410156-42.132813-119.410156l-23.492187-13.5625c-26.878907 46.558593-10.929688 106.09375 35.628906 132.972656l74.765625 43.167968c2.867187-4.160156 5.933593-8.167968 9.191406-12.011718zm0 0" fill="#ffc477"/><path d="m234.277344 104.132812h43.445312v148.238282h14.996094v-163.238282h-73.4375v163.238282h14.996094zm0 0"/><path d="m75.460938 308.085938h11.390624v29.585937h-11.390624v43.222656h361.078124v-43.222656h-11.390624v-29.585937h11.390624v-43.21875h-361.078124zm346.082031 57.808593h-331.085938v-13.222656h331.085938zm-11.394531-28.222656h-308.296876v-29.585937h308.296876zm-319.691407-57.804687h331.085938v13.222656h-331.085938zm0 0"/><path d="m248.5 115.230469h15v14.996093h-15zm0 0"/><path d="m248.5 144.234375h15v15h-15zm0 0"/><path d="m248.5 174.230469h15v15h-15zm0 0"/><path d="m248.5 204.226562h15v15h-15zm0 0"/><path d="m248.5 234.222656h15v15h-15zm0 0"/><path d="m401.84375 98.710938 82.695312-47.746094-7.5-12.988282-82.695312 47.746094c-6.691406 3.859375-10.039062 11.789063-8.140625 19.269532l12.457031 49.335937 14.542969-3.671875-4.816406-19.074219 41.492187-23.957031-7.496094-12.988281-37.8125 21.828125-3.828124-15.152344c-.25-.992188.210937-2.089844 1.101562-2.601562zm0 0"/><path d="m113.339844 154.332031 12.453125-49.332031c1.902343-7.488281-1.445313-15.414062-8.136719-19.277344l-82.695312-47.746094-7.5 12.988282 82.695312 47.746094c.890625.511718 1.351562 1.609374 1.097656 2.609374l-3.824218 15.148438-37.808594-21.832031-7.5 12.988281 41.492187 23.957031-4.816406 19.078125zm0 0"/><path d="m117.414062 169.890625-57.449218-33.167969c-20.78125-12-35.648438-31.375-41.859375-54.554687-5.558594-20.75-3.589844-42.324219 5.492187-61.527344l108.617188 62.710937c6.023437 3.476563 9.042968 10.605469 7.355468 17.347657l-7.476562 27.703125c-1.878906 6.964844-.304688 14.488281 4.21875 20.125l11.699219-9.386719c-1.539063-1.914063-2.078125-4.472656-1.4375-6.832031l7.492187-27.761719.027344-.113281c3.359375-13.234375-2.554688-27.242188-14.378906-34.070313l-121.875-70.363281-3.75 6.496094c-14.0000002 24.25-17.71875 52.503906-10.472656 79.554687 7.25 27.050781 24.597656 49.65625 48.847656 63.660157l57.453125 33.167968zm0 0"/><path d="m497.910156 6.496094-3.75-6.496094-121.875 70.363281c-11.824218 6.828125-17.738281 20.835938-14.378906 34.070313l7.519531 27.875c.640625 2.363281.101563 4.917968-1.4375 6.832031l11.703125 9.386719c4.519532-5.636719 6.097656-13.160156 4.214844-20.125l-7.476562-27.703125c-1.6875-6.742188 1.332031-13.871094 7.355468-17.347657l108.617188-62.710937c9.082031 19.203125 11.050781 40.777344 5.492187 61.527344-6.210937 23.179687-21.078125 42.554687-41.859375 54.554687l-57.453125 33.167969 7.5 12.988281 57.453125-33.167968c24.25-14.003907 41.597656-36.609376 48.847656-63.660157 7.246094-27.050781 3.527344-55.304687-10.472656-79.554687zm0 0"/><path d="m398.988281 253.347656 14.871094-1.957031c-3.890625-29.519531-15.996094-57.300781-35.019531-80.332031-18.792969-22.757813-43.410156-39.820313-71.191406-49.34375l-4.863282 14.1875c51.367188 17.605468 89.125 63.707031 96.203125 117.445312zm0 0"/><path d="m133.160156 171.054688c-19.023437 23.035156-31.132812 50.816406-35.019531 80.335937l14.871094 1.957031c7.074219-53.742187 44.835937-99.839844 96.199219-117.445312l-4.859376-14.1875c-27.78125 9.523437-52.398437 26.582031-71.191406 49.339844zm0 0"/><g fill="#fff"><path d="m372.894531 248.851562c-4.21875-20.933593-14.046875-40.429687-28.421875-56.375l11.144532-10.042968c16.171874 17.945312 27.230468 39.886718 31.980468 63.457031zm-34.988281-63.113281c-3.402344-3.226562-7.035156-6.285156-10.789062-9.082031l8.964843-12.023438c4.226563 3.148438 8.3125 6.589844 12.144531 10.222657zm-18.542969-14.402343c-3.96875-2.496094-8.125-4.777344-12.355469-6.78125l6.421876-13.554688c4.765624 2.253906 9.449218 4.828125 13.921874 7.640625zm0 0"/><path d="m402.316406 330.378906h-64.660156v-14.996094h64.660156zm-74.660156 0h-14.996094v-14.996094h14.996094zm-24.996094 0h-14.996094v-14.996094h14.996094zm0 0"/></g></svg>