<svg height="511pt" viewBox="1 -53 511.999 511" width="511pt" xmlns="http://www.w3.org/2000/svg"><path d="m341.210938 339.492188-119.863282-119.863282c-5.042968-5.042968-13.21875-5.042968-18.261718 0l-21.679688 21.675782c-5.042969 5.042968-5.042969 13.222656 0 18.265624l119.863281 119.863282c5.042969 5.042968 13.21875 5.042968 18.261719 0l21.679688-21.679688c5.042968-5.042968 5.042968-13.21875 0-18.261718zm0 0" fill="#ffe477"/><path d="m184.238281 262.40625 106.429688 106.429688c-41.65625 18.707031-87.847657 29.121093-136.46875 29.121093-52.644531 0-102.433594-12.195312-146.699219-33.917969 0-18.441406 13.8125-33.902343 32.117188-36.113281 55.21875-6.667969 105.207031-30.300781 144.621093-65.519531zm88.625-197.917969c0 58.292969-18.8125 112.1875-50.679687 155.972657l119.691406 119.691406c88.007812-60.03125 145.796875-161.09375 145.796875-275.664063zm0 0" fill="#b77062"/><path d="m496.308594 8h-233.117188c-4.519531 0-8.1875 3.667969-8.1875 8.191406v40.105469c0 4.523437 3.667969 8.191406 8.1875 8.191406h233.117188c4.523437 0 8.191406-3.667969 8.191406-8.191406v-40.109375c0-4.523438-3.667969-8.1875-8.191406-8.1875zm0 0" fill="#ffe477"/><path d="m211.40625 259.570312c-5.042969-5.042968-5.042969-13.222656 0-18.265624l15.808594-15.808594-5.867188-5.867188c-5.042968-5.042968-13.21875-5.042968-18.261718 0l-21.679688 21.675782c-5.042969 5.042968-5.042969 13.222656 0 18.265624l119.863281 119.863282c5.042969 5.042968 13.21875 5.042968 18.261719 0l5.867188-5.867188zm0 0" fill="#ffb655"/><path d="m252.183594 220.460938c31.867187-43.785157 50.679687-97.679688 50.679687-155.972657h-30c0 58.296875-18.8125 112.1875-50.679687 155.972657l119.691406 119.695312c5.917969-4.039062 11.699219-8.261719 17.339844-12.664062zm0 0" fill="#895247"/><path d="m37.5 364.039062c0-18.441406 13.8125-33.902343 32.117188-36.113281 47.800781-5.769531 91.683593-24.253906 128.179687-51.964843l-13.558594-13.554688c-39.414062 35.21875-89.402343 58.851562-144.621093 65.519531-18.304688 2.210938-32.117188 17.671875-32.117188 36.113281 44.265625 21.722657 94.054688 33.917969 146.699219 33.917969 5.027343 0 10.027343-.113281 14.996093-.332031-47.101562-2.085938-91.65625-13.941406-131.695312-33.585938zm0 0" fill="#895247"/><path d="m285.003906 56.296875v-40.109375c0-4.523438 3.667969-8.1875 8.1875-8.1875h-30c-4.519531 0-8.1875 3.664062-8.1875 8.1875v40.109375c0 4.523437 3.667969 8.1875 8.1875 8.1875h30c-4.519531.003906-8.1875-3.664063-8.1875-8.1875zm0 0" fill="#ffb655"/><path d="m226.648438 214.324219c-7.957032-7.960938-20.910157-7.960938-28.867188 0l-21.679688 21.679687c-7.980468 7.976563-7.980468 20.890625 0 28.867188l119.863282 119.863281c7.960937 7.960937 20.90625 7.960937 28.871094 0l21.679687-21.679687c7.957031-7.957032 7.957031-20.910157 0-28.871094zm109.257812 138.125-21.679688 21.679687c-2.109374 2.113282-5.546874 2.113282-7.65625 0l-119.863281-119.863281c-2.109375-2.109375-2.109375-5.546875 0-7.65625l21.679688-21.679687c2.109375-2.109376 5.546875-2.109376 7.65625 0l119.863281 119.863281c2.113281 2.113281 2.113281 5.546875 0 7.65625zm0 0"/><path d="m208.269531 257.101562 10.609375-10.605468 10.605469 10.605468-10.605469 10.609376zm0 0"/><path d="m229.484375 278.316406 10.605469-10.605468 10.605468 10.605468-10.605468 10.605469zm0 0"/><path d="m250.695312 299.527344 10.605469-10.605469 10.609375 10.609375-10.605468 10.605469zm0 0"/><path d="m271.914062 320.722656 10.605469-10.609375 10.605469 10.609375-10.605469 10.605469zm0 0"/><path d="m293.125 341.945312 10.605469-10.605468 10.605469 10.605468-10.605469 10.605469zm0 0"/><path d="m496.3125.5h-233.121094c-8.652344 0-15.6875 7.039062-15.6875 15.6875v40.109375c0 8.652344 7.035156 15.6875 15.6875 15.6875h233.117188c8.652344 0 15.691406-7.035156 15.691406-15.6875v-40.109375c0-8.648438-7.039062-15.6875-15.6875-15.6875zm.6875 55.796875c0 .378906-.308594.691406-.6875.691406h-233.121094c-.378906 0-.6875-.3125-.6875-.691406v-40.109375c0-.378906.308594-.6875.6875-.6875h233.117188c.382812 0 .691406.308594.691406.6875zm0 0"/><path d="m154.199219 390.457031c-48.617188 0-95.300781-10.414062-138.839844-30.957031 2-12.535156 12.148437-22.558594 25.160156-24.128906 48.222657-5.820313 94.148438-24.5625 132.8125-54.199219l-9.128906-11.90625c-36.53125 28.003906-79.925781 45.714844-125.484375 51.214844-22.074219 2.664062-38.71875 21.390625-38.71875 43.558593v4.675782l4.195312 2.058594c46.90625 23.015624 97.375 34.683593 150.003907 34.683593 40.941406 0 80.988281-7.1875 119.035156-21.367187l-5.238281-14.054688c-36.363282 13.550782-74.652344 20.421875-113.796875 20.421875zm0 0"/><path d="m353.460938 322.464844 9.175781 11.863281c78.039062-60.363281 126.125-151.265625 131.929687-249.398437l-14.972656-.886719c-5.550781 93.808593-51.523438 180.710937-126.132812 238.421875zm0 0"/><path d="m264.640625 83.929688c-3.042969 40.832031-16.007813 80.832031-37.488281 115.667968l12.769531 7.871094c22.734375-36.871094 36.457031-79.207031 39.679687-122.425781zm0 0"/><g fill="#fff"><path d="m154.199219 377.960938c-30.363281 0-60.222657-4.273438-88.753907-12.695313l4.246094-14.386719c27.152344 8.015625 55.585938 12.082032 84.507813 12.082032 12.386719 0 24.816406-.757813 36.945312-2.246094l1.828125 14.890625c-12.734375 1.5625-25.777344 2.355469-38.773437 2.355469zm48.917969-3.773438-2.3125-14.820312c4.800781-.75 9.640624-1.628907 14.386718-2.613282l3.050782 14.6875c-4.992188 1.035156-10.078126 1.960938-15.125 2.746094zm25.121093-4.996094-3.53125-14.578125c4.714844-1.144531 9.464844-2.417969 14.121094-3.796875l4.257813 14.382813c-4.898438 1.449219-9.890626 2.792969-14.847657 3.992187zm0 0"/><path d="m349.277344 309.867188-9.339844-11.738282c50.417969-40.121094 87.070312-96.519531 103.207031-158.804687l14.519531 3.761719c-8.457031 32.648437-22.054687 63.558593-40.414062 91.882812-18.484375 28.515625-41.355469 53.714844-67.972656 74.898438zm110.796875-176.742188-14.636719-3.285156c1.0625-4.742188 2.023438-9.570313 2.851562-14.347656l14.777344 2.558593c-.867187 5.019531-1.875 10.089844-2.992187 15.074219zm4.578125-25.203125-14.851563-2.074219c.671875-4.8125 1.230469-9.703125 1.667969-14.535156l14.9375 1.34375c-.457031 5.074219-1.046875 10.210938-1.753906 15.265625zm0 0"/><path d="m485.949219 43.742188h-29.738281v-15h29.738281zm-39.738281 0h-15v-15h15zm-25 0h-15v-15h15zm0 0"/></g></svg>