<svg height="480pt" viewBox="0 -20 480 480" width="480pt" xmlns="http://www.w3.org/2000/svg" xmlns:xlink="http://www.w3.org/1999/xlink"><linearGradient id="a"><stop offset="0" stop-color="#fec183"/><stop offset=".173" stop-color="#fea981"/><stop offset=".538" stop-color="#fe6b7b"/><stop offset="1" stop-color="#ff1572"/></linearGradient><linearGradient id="b" gradientUnits="userSpaceOnUse" x1="-32" x2="449.664" xlink:href="#a" y1="376.123669" y2="376.123669"/><linearGradient id="c" gradientUnits="userSpaceOnUse" x1="-32" x2="449.664" xlink:href="#a" y1="220.123669" y2="220.123669"/><linearGradient id="d" gradientUnits="userSpaceOnUse" x1="-32" x2="449.664" xlink:href="#a" y1="236.123669" y2="236.123669"/><linearGradient id="e" gradientUnits="userSpaceOnUse" x1="-32" x2="449.664" xlink:href="#a" y1="208.123669" y2="208.123669"/><linearGradient id="f" gradientUnits="userSpaceOnUse" x1="-32" x2="449.664" xlink:href="#a" y1="328.123669" y2="328.123669"/><linearGradient id="g" gradientUnits="userSpaceOnUse" x1="-32" x2="449.664" xlink:href="#a" y1="136.123669" y2="136.123669"/><linearGradient id="h" gradientUnits="userSpaceOnUse" x1="-32" x2="449.664" xlink:href="#a" y1="104.123669" y2="104.123669"/><linearGradient id="i" gradientUnits="userSpaceOnUse" x1="-32" x2="449.664" xlink:href="#a" y1="24.123669" y2="24.123669"/><linearGradient id="j" gradientUnits="userSpaceOnUse" x1="-32" x2="449.664" xlink:href="#a" y1="56.123669" y2="56.123669"/><linearGradient id="k" gradientUnits="userSpaceOnUse" x1="-32" x2="449.664" xlink:href="#a" y1="86.955669" y2="86.955669"/><path d="m128 344.125c-17.671875 0-32 14.324219-32 32 0 17.671875 14.328125 32 32 32s32-14.328125 32-32c0-17.675781-14.328125-32-32-32zm0 48c-8.835938 0-16-7.164062-16-16s7.164062-16 16-16 16 7.164062 16 16-7.164062 16-16 16zm0 0" fill="url(#b)"/><path d="m360 344.125c-17.671875 0-32 14.324219-32 32 0 17.671875 14.328125 32 32 32s32-14.328125 32-32c0-17.675781-14.328125-32-32-32zm0 48c-8.835938 0-16-7.164062-16-16s7.164062-16 16-16 16 7.164062 16 16-7.164062 16-16 16zm0 0" fill="url(#b)"/><path d="m378.441406 160.125c31.488282-22.015625 45.054688-61.910156 33.515625-98.554688-11.539062-36.644531-45.519531-61.570312-83.9375-61.570312s-72.398437 24.925781-83.9375 61.570312c-11.539062 36.644532 2.03125 76.539063 33.519531 98.554688h-237.601562c-3.910156 0-7.246094 2.828125-7.886719 6.6875l-32 192c0 .207031-.113281 1.0625-.113281 1.3125v32c0 4.417969 3.582031 8 8 8h60.710938c9.757812 24.171875 33.21875 40.003906 59.289062 40.003906s49.53125-15.832031 59.289062-40.003906h113.421876c9.757812 24.171875 33.21875 40.003906 59.289062 40.003906s49.53125-15.832031 59.289062-40.003906h52.710938c4.417969 0 8-3.582031 8-8v-154.746094l-60.089844-77.253906zm-106.640625-27.113281c-8.503906-10.59375-13.820312-23.386719-15.328125-36.886719h15.527344v-16h-15.527344c1.507813-13.5 6.824219-26.296875 15.328125-36.890625l10.542969 10.546875 11.3125-11.3125-10.542969-10.546875c10.59375-8.5 23.386719-13.816406 36.886719-15.328125v15.53125h16v-15.53125c13.5 1.511719 26.292969 6.828125 36.886719 15.328125l-10.542969 10.546875 11.3125 11.3125 10.542969-10.546875c8.503906 10.59375 13.820312 23.390625 15.328125 36.890625h-15.527344v16h15.527344c-1.507813 13.5-6.824219 26.292969-15.328125 36.886719l-10.542969-10.542969-11.3125 11.3125 10.542969 10.542969c-10.59375 8.503906-23.386719 13.820312-36.886719 15.328125v-15.527344h-16v15.527344c-13.5-1.507813-26.292969-6.824219-36.886719-15.328125l10.542969-10.542969-11.3125-11.3125zm-225.023437 43.113281h255.773437l-9.328125 56h-139.335937l-62.3125-31.160156c-1.109375-.554688-2.332031-.84375-3.574219-.839844h-45.222656zm-6.664063 40h46l62.3125 31.199219c1.113281.539062 2.335938.8125 3.574219.800781h138.550781l-5.335937 32h-147.085938l-54.128906-30.945312c-1.21875-.695313-2.597656-1.0625-4-1.054688h-45.222656zm24.4375 168h-48.550781v-16h48.550781c-.734375 5.304688-.734375 10.691406 0 16zm63.449219 40c-26.507812 0-48-21.492188-48-48 0-26.511719 21.492188-48 48-48s48 21.488281 48 48c-.027344 26.496094-21.5 47.972656-48 48zm0-112c-26.058594.035156-49.496094 15.851562-59.289062 40h-51.261719l8-48h70.550781v-16h-67.886719l4-24h45.757813l54.160156 30.941406c1.210938.691406 2.578125 1.054688 3.96875 1.058594h146.550781l-9.335937 56h-85.925782c-9.792968-24.148438-33.230468-39.964844-59.289062-40zm168.550781 72h-105.101562c.734375-5.308594.734375-10.695312 0-16h105.101562c-.734375 5.304688-.734375 10.691406 0 16zm63.449219 40c-26.507812 0-48-21.492188-48-48 0-26.511719 21.492188-48 48-48s48 21.488281 48 48c-.027344 26.496094-21.5 47.972656-48 48zm0-112c-26.058594.035156-49.496094 15.851562-59.289062 40h-11.261719l6.6875-40h135.863281v40h-12.710938c-9.792968-24.148438-33.230468-39.964844-59.289062-40zm104 72h-40.550781c.734375-5.308594.734375-10.695312 0-16h40.550781zm0-32h-16v-56h-149.214844l20-120h93.304688l51.910156 66.742188zm0 0" fill="url(#c)"/><path d="m400 192.125h-56c-3.75 0-6.996094 2.601562-7.808594 6.261719l-16 72c-.527344 2.371093.050782 4.847656 1.570313 6.742187 1.515625 1.894532 3.8125 2.996094 6.238281 2.996094h112c4.417969 0 8-3.582031 8-8v-24c0-1.875-.65625-3.691406-1.855469-5.128906l-40-48c-1.519531-1.820313-3.773437-2.875-6.144531-2.871094zm32 72h-61.753906l5.515625-22.066406-15.523438-3.871094-6.484375 25.9375h-15.777344l12.421876-56h39.335937l-5.511719 22.0625 15.519532 3.871094 4.179687-16.710938 28.078125 33.671875zm0 0" fill="url(#d)"/><path d="m184 200.125h96v16h-96zm0 0" fill="url(#e)"/><path d="m152 200.125h16v16h-16zm0 0" fill="url(#e)"/><path d="m240 320.125h16v16h-16zm0 0" fill="url(#f)"/><path d="m208 320.125h16v16h-16zm0 0" fill="url(#f)"/><path d="m104 128.125h136v16h-136zm0 0" fill="url(#g)"/><path d="m72 96.125h144v16h-144zm0 0" fill="url(#h)"/><path d="m120 16.125h128v16h-128zm0 0" fill="url(#i)"/><path d="m80 48.125h144v16h-144zm0 0" fill="url(#j)"/><path d="m365.65625 114.46875-29.65625-29.65625v-36.6875h-16v43.3125l34.34375 34.34375zm0 0" fill="url(#k)"/><path d="m88 16.125h16v16h-16zm0 0" fill="url(#i)"/><path d="m40 96.125h16v16h-16zm0 0" fill="url(#h)"/></svg>