<?xml version="1.0" encoding="utf-8"?>
<!-- Generator: Adobe Illustrator 23.0.3, SVG Export Plug-In . SVG Version: 6.00 Build 0)  -->
<svg version="1.1" id="Camada_1" xmlns="http://www.w3.org/2000/svg" xmlns:xlink="http://www.w3.org/1999/xlink" x="0px" y="0px"
	 viewBox="0 0 612 792" style="enable-background:new 0 0 612 792;" xml:space="preserve">
<style type="text/css">
	.st0{fill:#FFFFFF;}
</style>
<g>
	<g>
		<path class="st0" d="M262.59,644.47c2.09-18.22,2.03-34.58-8.28-48.73c-6.64-9.11-13.89-18.27-22.57-25.3
			c-33.96-27.54-42.72-63.59-39.27-105.19c5.09-61.41,8.95-122.91,13.39-184.37c1.22-16.96,2.52-33.92,4.01-50.86
			c0.7-8.03,5.3-10.9,14.79-9.81c7.12,0.82,8.34,5.4,8.02,11.63c-2.39,46.78-4.59,93.58-6.9,140.36
			c-1.68,33.98-3.1,67.98-5.32,101.93c-1.78,27.16,4.33,51.28,23.47,71.43c6.62,6.97,12.84,14.32,19.25,21.49
			c14.16,15.87,22.78,34.31,22.14,55.69c-0.83,27.48-3.11,54.93-4.77,82.39c-0.91,0.19-1.82,0.39-2.73,0.58
			c-1.28-1.19-2.86-2.18-3.79-3.59c-21.84-33.14-52.68-54.59-88.8-69.66c-17.02-7.1-34.14-14.42-50-23.71
			c-47.13-27.58-65.52-70.6-61.49-123.55c1.33-17.47,6.91-34.62,10.71-51.88c0.56-2.56,2.03-4.92,3.82-9.11
			c2.42,3.65,4.31,5.95,5.6,8.55c8.98,18.02,20.02,34.54,34.71,48.44c3.22,3.04,6.58,6.03,10.28,8.41c2.24,1.44,5.25,1.68,7.92,2.46
			c0.48-2.51,1.49-5.05,1.36-7.53c-1.03-19.14-7.39-36.74-17.33-52.83c-11.39-18.44-23.72-36.3-35.76-54.33
			c-16.94-25.38-28.4-52.81-26.68-83.75c2.85-51.16,26.43-91.48,67.31-121.94c0.97-0.72,2.1-1.26,3.21-1.77
			c0.4-0.18,0.96-0.03,2.95-0.03c-0.82,5.81-1.55,11.42-2.42,17c-4.02,25.96-6.32,51.93,0.74,77.74c1.5,5.49,4.21,10.66,6.36,15.98
			c0.79-0.07,1.57-0.13,2.36-0.2c0.52-1.88,1.51-3.77,1.49-5.64c-0.43-36.16,8.53-70.73,17.29-105.39
			c8.41-33.29,14.48-66.93,13.02-101.53c-0.1-2.27,1.03-4.59,1.58-6.88c1.77,0.45,3.86,0.45,5.26,1.43
			c37.14,25.76,66.84,57.41,80.6,101.75c7.54,24.3,9.56,49.14,9.18,74.45c-1.1,73.24-1.79,146.48-2.64,219.73
			c-0.11,9.47-2.81,12.38-11.47,12.4c-8.47,0.02-11.47-2.91-11.58-11.55c-0.99-81.87-1.99-163.75-2.9-245.62
			c-0.38-34.31-10.02-65.51-30.74-93.06c-1.69-2.25-3.83-4.16-6.38-6.9c-0.99,2.35-1.98,3.61-1.97,4.86
			c0.36,34.6-10.1,67.01-20.12,99.49c-10.73,34.78-18.51,70.01-17.1,106.74c0.09,2.22-1.25,4.5-1.92,6.75
			c-2.25-0.68-4.76-0.92-6.71-2.1c-26.64-16.18-42.06-40.13-48.32-70.35c-0.57-2.77-1.35-5.51-2.04-8.26
			c-0.65-0.11-1.3-0.23-1.96-0.34c-1.26,2.65-2.87,5.19-3.74,7.96c-9.34,29.62-6.65,58.51,6.57,86.27
			c5.38,11.29,11.54,22.48,19.05,32.42c25.39,33.6,35.8,71.91,37.66,113.18c0.37,8.13,0.39,16.27,0.42,24.41
			c0.03,9.21-1.96,10.99-10.49,8.19c-10.03-3.3-20.24-6.49-29.58-11.27c-9.33-4.77-17.68-11.44-27.7-18.09
			c0.43,4.43,0.45,8.39,1.24,12.19c6.56,31.62,22.02,57.44,50.34,74.13c13.77,8.11,28.15,15.23,42.48,22.33
			c21.69,10.75,43.35,21.45,60.23,39.49C258.7,642.41,259.89,642.83,262.59,644.47z"/>
		<path class="st0" d="M461.41,226.42c2.06-3.74,3.79-5.86,4.46-8.27c3.68-13.24,7.43-26.47,10.48-39.85
			c1.69-7.41,3.39-8.64,9.54-4.17c46.84,34.08,68.48,92.75,37.97,149.41c-7.94,14.75-16.58,29.11-24.89,43.66
			c-9.37,16.41-16.73,33.54-17.71,52.71c-0.17,3.3,1.58,6.69,2.44,10.04c3.08-1.12,6.71-1.54,9.14-3.48
			c20.47-16.28,35.3-36.93,46.19-60.58c1.14-2.47,3.31-4.47,5.01-6.68c1.92,2.07,4.35,3.85,5.7,6.24
			c26.68,47.36,27.5,131.78-42.98,174.94c-14.91,9.13-30.24,17.59-45.23,26.6c-2.29,1.38-3.79,4.06-5.66,6.14
			c2.51,1.21,4.93,2.71,7.55,3.58c12.57,4.19,25.29,7.98,37.76,12.47c3.13,1.13,5.53,4.3,8.26,6.54c-2.62,2.03-5.01,4.49-7.9,6.01
			c-46.18,24.36-87.63,55.03-123.54,92.96c-9.13,9.65-17.19,20.31-25.73,30.52c-1.69,2.02-3.33,4.07-7.02,5.84
			c-0.88-7.35-2.06-14.68-2.6-22.06c-1.92-26.28-4.19-52.55-5.25-78.87c-1.05-26.07,7.7-48.86,26.22-67.63
			c3.29-3.33,6.1-7.15,9.49-10.36c24.51-23.2,31.67-51.76,29.2-84.75c-3.44-45.96-4.93-92.06-7.2-138.11
			c-1.59-32.26-3.13-64.52-4.6-96.78c-0.42-9.3,1.5-11.82,8.63-12.31c9.84-0.67,13.62,2.08,14.32,11.42
			c2.68,36.13,5.14,72.28,7.72,108.42c2.8,39.09,6.08,78.14,8.27,117.26c0.96,17.15,0.53,34.48-0.7,51.63
			c-1.3,18.14-10.33,33.2-22.77,46.16c-9.56,9.96-19.26,19.79-29.02,29.56c-11.47,11.5-16.25,25.66-16.37,41.51
			c-0.1,12.32,0.24,24.64,0.8,36.95c0.1,2.31,1.65,5.29,3.49,6.48c1,0.65,4.4-1.41,6.06-2.94c7.25-6.68,14.27-13.62,21.37-20.47
			c18.62-18,37.37-35.85,60.95-47.57c0.07-0.77,0.15-1.54,0.22-2.31c-7.32-1.74-14.61-3.55-21.95-5.18
			c-2.63-0.58-5.38-0.64-8.05-1.09c-8.66-1.45-9.86-3.68-3.36-9.89c17.08-16.3,34.69-32.05,52.35-47.74
			c5.88-5.22,12.57-9.52,18.84-14.31c29.05-22.19,40.81-52.73,42.51-88.11c0.05-0.97-0.04-1.98-0.28-2.92
			c-0.17-0.67-0.7-1.24-1.68-2.87c-2.09,1.84-4.15,3.3-5.77,5.14c-16.13,18.2-36.67,29.62-58.97,38.24
			c-7.13,2.75-10.11,0.67-11.73-7.15c-8.13-39.18-4.14-76.21,17.58-110.88c11.86-18.94,23.49-38.24,29.16-60.31
			c5.84-22.73,2.82-44.44-7.09-65.42c-0.63-1.33-1.4-2.62-2.29-3.78c-0.57-0.74-1.48-1.2-3.54-2.79c-1.58,3.74-3.14,6.83-4.22,10.09
			c-7.08,21.44-18.02,40.48-34.77,55.84c-2.19,2.01-5.32,3-8.01,4.47c-0.83-2.87-2.44-5.75-2.38-8.6
			c0.57-30.88-6.26-59.97-19.13-88.02c-6.64-14.48-11.3-29.87-16.99-44.79c-0.73-1.91-2.33-3.48-3.53-5.2
			c-1.8,1.5-4.14,2.65-5.33,4.54c-14.32,22.73-20.5,47.91-20.89,74.46c-1.17,79.4-2.01,158.8-2.97,238.2
			c-0.12,10.11-3.65,13.39-13.49,12.48c-7.19-0.66-9.47-3.65-9.56-12.92c-0.68-69.05-1.16-138.1-2.08-207.14
			c-0.36-26.9-0.88-53.7,6.37-80c10.2-37,31.4-65.95,63.23-87.19c1.88-1.26,4.4-1.56,6.62-2.31c0.49,2.26,1.55,4.57,1.38,6.78
			c-2.33,31.31,1.8,61.31,16.02,89.78c7.02,14.06,12.52,28.88,18.75,43.33C458.74,222.31,459.63,223.46,461.41,226.42z"/>
		<path class="st0" d="M322.13,458.51c-0.01,9.21-2.78,12.18-10.82,12.19c-7.99,0.01-10.8-3.12-10.94-12.15
			c-1.07-74.92-2.15-149.83-3.17-224.75c-0.07-4.53-1.51-11.01,4.28-11.96c6.02-0.98,12.45-0.37,18.57,0.74
			c0.7,0.12,1.39,0.25,2.09,0.38V353.6C322.15,388.57,322.18,423.54,322.13,458.51z"/>
	</g>
</g>
</svg>
